# xmcd
#
# Track frame offsets:
#	151
#	24215
#	45372
#	68357
#	87708
#	128769
#	159091
#	228288
#	264949
#	292172
#
# Disc length: 4349 seconds
#
# Revision: 0
# Processed by: cddbd v1.5.2PL0 Copyright (c) Steve Scherf et al.
# Submitted via: EZCDAudioConverter 2.2.2.1
#
DISCID=7410fb0a
DTITLE=B.B. King  - Live at the Royal Albert Hall 2011
DYEAR=1900
DGENRE=
TTITLE0=B.B. King -  \nI Need You So  
TTITLE1=B.B. King  - Key to the Highway
TTITLE2=B.B. King  - See That My Grave Is Kept Clean
TTITLE3=B.B. King  - All Over Again
TTITLE4=B.B. King  - Rock Me Baby 
TTITLE5=B.B. King  - You Are My Sunshine 
TTITLE6=B.B. King  - B.B. Jams with Guests 
TTITLE7=B.B. King  - The Thrill Is Gone 
TTITLE8=B.B. King  - Guess Who
TTITLE9=B.B. King  - When the Saints Go Marching In 
EXTD=
EXTT0=
EXTT1=
EXTT2=
EXTT3=
EXTT4=
EXTT5=
EXTT6=
EXTT7=
EXTT8=
EXTT9=
PLAYORDER=
